<svg xmlns="http://www.w3.org/2000/svg" width="371.4" height="203.1" viewBox="0 0 371.4 203.1">
  <g id="Kooperativa_NEW_RGB" transform="translate(-93.3 -93.4)">
    <g id="Group_818" data-name="Group 818">
      <path id="Path_868" data-name="Path 868" d="M115.3,215.2,134,237.8H120.8l-16.8-20v20H93.4V195.3H104v19.2h.1l13.4-19.2h11.6l-13.8,19.9" fill="#00843d"/>
      <path id="Path_869" data-name="Path 869" d="M167.4,221.7c0-12.3-10.2-16.8-18-16.8-9.5,0-18.2,5.7-18.2,16.7,0,10.1,7.7,16.8,18.2,16.8,7,0,18-3.9,18-16.7m-10.8-.2c0,7-2.5,10.9-7.2,10.9-3.8,0-7.4-2.4-7.4-10.8,0-7.3,3-10.7,7.4-10.7C154.4,211,156.6,215.2,156.6,221.5Z" fill="#00843d"/>
      <path id="Path_870" data-name="Path 870" d="M207.5,221.7c0-12.3-10.2-16.8-18-16.8-9.5,0-18.2,5.7-18.2,16.7,0,10.1,7.7,16.8,18.2,16.8,7.1,0,18-3.9,18-16.7m-10.8-.2c0,7-2.5,10.9-7.2,10.9-3.8,0-7.4-2.4-7.4-10.8,0-7.3,3-10.7,7.4-10.7C194.6,211,196.7,215.2,196.7,221.5Z" fill="#00843d"/>
      <path id="Path_871" data-name="Path 871" d="M222.8,205.6H212.7v45.7h10.1V236.2a16.866,16.866,0,0,0,8.3,2.2c9.5,0,15.8-6.7,15.8-17.1,0-9.3-6.6-16.4-14.9-16.4a14,14,0,0,0-9.2,3.4v-2.7m0,9.2c2.5-2,4.1-2.6,6.3-2.6,4.8,0,7.6,3.6,7.6,9.8,0,6-3.1,9.8-8,9.8a9.225,9.225,0,0,1-5.8-2.1V214.8Z" fill="#00843d"/>
      <path id="Path_872" data-name="Path 872" d="M283.7,227.8c-4.7,3.4-7.9,4.6-11.9,4.6-6.4,0-10.3-3.4-10.7-9.1h23.1c.5-11.7-7.2-18.3-16.6-18.3-9.9,0-17,7-17,16.8,0,10.1,7.3,16.6,18.7,16.6a23.632,23.632,0,0,0,14.4-4.2v-6.4m-22.4-9.7c.5-4.5,3-7.1,7-7.1,3.9,0,6.6,2.7,7,7.1Z" fill="#00843d"/>
      <path id="Path_873" data-name="Path 873" d="M300.8,212.6l.1,1.5c3-6.7,6.6-8.4,9.4-8.6a6.3,6.3,0,0,1,5.6,1.8V217a12.022,12.022,0,0,0-7-1.6c-3.4,0-8.1,4.5-8.1,8.4v13.9H290.7V205.6h10.1v7" fill="#00843d"/>
      <path id="Path_874" data-name="Path 874" d="M352.4,229.8c-2.3,1.7-3.1,1.8-3.8,1.8-1,0-1.7-.6-1.7-2.2V214.7c0-7-5.5-9.7-13.6-9.7a26.15,26.15,0,0,0-14,3.9v8.2a17.474,17.474,0,0,1,11.9-5.4c4.4,0,5.8,2.4,5.6,5.4-13.5,4.2-19.1,5.8-19.1,13.5,0,4.1,3.8,7.9,9,7.9,3.5,0,6.7-1,10.7-3.6.7,2.6,2.3,3.6,5.6,3.6a22.151,22.151,0,0,0,9.5-2.9v-5.8m-15.7.2a8.743,8.743,0,0,1-5.6,2.4,3.35,3.35,0,0,1-3.3-3.4c0-3.2,2.9-4.6,8.9-6.8Z" fill="#00843d"/>
      <path id="Path_875" data-name="Path 875" d="M378.3,212.6H366.6v13.3c0,3.1,1.8,5.1,4.9,5.1a14.369,14.369,0,0,0,6.8-1.9v7.3a22.325,22.325,0,0,1-9.3,2c-6.7,0-12.5-3.1-12.5-12V212.6h-4.6v-2l13.5-15.1h1.3v10.1h11.7v7" fill="#00843d"/>
      <path id="Path_876" data-name="Path 876" d="M393.3,195.2a5.6,5.6,0,1,1-5.6-5.6,5.591,5.591,0,0,1,5.6,5.6m-10.7,10.4h10.1v32.1H382.6Z" fill="#00843d"/>
      <path id="Path_877" data-name="Path 877" d="M394.8,205.6h10.7l6.9,17.8,6.9-17.8H430l-14.8,32.8h-5.6l-14.8-32.8" fill="#00843d"/>
      <path id="Path_878" data-name="Path 878" d="M464.6,229.8c-2.4,1.7-3.2,1.8-3.8,1.8-1.1,0-1.7-.6-1.7-2.2V214.7c0-7-5.5-9.7-13.6-9.7a26.15,26.15,0,0,0-14,3.9v8.2a17.474,17.474,0,0,1,11.9-5.4c4.4,0,5.8,2.4,5.6,5.4-13.5,4.2-19.1,5.8-19.1,13.5,0,4.1,3.8,7.9,9,7.9,3.5,0,6.7-1,10.6-3.6.7,2.6,2.3,3.6,5.7,3.6a22.151,22.151,0,0,0,9.5-2.9v-5.8m-15.8.2a8.743,8.743,0,0,1-5.6,2.4A3.417,3.417,0,0,1,440,229c0-3.2,2.9-4.6,8.9-6.8Z" fill="#00843d"/>
      <path id="Path_879" data-name="Path 879" d="M245.5,139l7.2,12.5-13.2,22.8h32.3l13.1-22.8h14.5L279,186.8H232.3l-7.2-12.5L245.5,139" fill="#00843d"/>
      <path id="Path_880" data-name="Path 880" d="M284.9,186.8l7.3-12.5h26.3l-16.2-28H276l-7.2-12.5h40.8l23.3,40.5-7.2,12.5H284.9" fill="#00843d"/>
      <path id="Path_881" data-name="Path 881" d="M306.6,128.7H292.2L279,105.9l-16.2,27.9L276,156.6l-7.2,12.5-20.4-35.3,23.4-40.4h14.4l20.4,35.3" fill="#00843d"/>
    </g>
    <g id="Group_819" data-name="Group 819">
      <rect id="Linie_1_" width="371.2" height="5.7" transform="translate(93.3 257.6)" fill="#e2000f"/>
      <path id="Subline_x5F_englisch" d="M102.7,296.4h-2.4l-6.8-19.9h3.3l4.8,14.5,4.8-14.5h3.3Zm9.8,0V276.5h3.1v19.9Zm8.7,0V276.5h13.3v2.7H124.4V285H133v2.7h-8.6v6h10.1v2.7H121.2Zm30.3,0-9.6-14v14h-3.1V276.5h2.9l9.6,14v-14h3.1v19.9Zm21.2,0-9.6-14v14H160V276.5h2.9l9.6,14v-14h3.1v19.9Zm20.3,0-1.4-4h-8.2l-1.4,4h-3.4l7.6-19.9h2.5l7.6,19.9ZM187.5,281l-3.2,8.8h6.4Zm18.9,15.4V276.5h3.1v19.9Zm21.4,0-9.6-14v14h-3.1V276.5H218l9.6,14v-14h3.1v19.9Zm13.9.1c-3.1,0-5.4-.7-7.3-2.6l2.1-2a6.847,6.847,0,0,0,5.3,1.9c2.7,0,4.3-1.1,4.3-3a2.865,2.865,0,0,0-.8-2.1,3.1,3.1,0,0,0-2.3-.8l-2.4-.3a7,7,0,0,1-3.9-1.6,4.9,4.9,0,0,1-1.5-3.8c0-3.5,2.6-5.8,6.9-5.8a8.692,8.692,0,0,1,6.4,2.3l-2,1.9a6.166,6.166,0,0,0-4.5-1.5c-2.4,0-3.8,1.3-3.8,3.1a2.055,2.055,0,0,0,.8,1.8,4.833,4.833,0,0,0,2.3.9l2.4.3a7.08,7.08,0,0,1,3.9,1.5,5.2,5.2,0,0,1,1.7,4.1C249.2,294.3,246.1,296.5,241.7,296.5Zm18.9,0c-4.2,0-7.4-2.8-7.4-6.9V276.4h3.1v13a4.3,4.3,0,0,0,8.6,0v-13H268v13.2C268,293.8,264.8,296.5,260.6,296.5Zm24.1-.1-4.4-8.4h-3.9v8.4h-3.1V276.5h8c3.9,0,6.4,2.4,6.4,5.8a5.317,5.317,0,0,1-4.1,5.3l4.8,8.8h-3.7ZM281,279.2h-4.7v6.2H281c2.1,0,3.5-1.1,3.5-3.1S283.1,279.2,281,279.2Zm23.3,17.2-1.4-4h-8.2l-1.4,4h-3.4l7.6-19.9H300l7.6,19.9ZM298.8,281l-3.2,8.8H302Zm24.6,15.4-9.6-14v14h-3.1V276.5h2.9l9.6,14v-14h3.1v19.9Zm15.1.1a7.725,7.725,0,0,1-5.4-2.1c-2-2-2-4.2-2-8s0-6,2-8a7.47,7.47,0,0,1,5.4-2.1,7.9,7.9,0,0,1,5.8,2.3l-2.1,2a4.983,4.983,0,0,0-3.7-1.7,4.3,4.3,0,0,0-3.1,1.2c-1,1.1-1.2,2.2-1.2,6.2s.2,5.1,1.2,6.2a3.994,3.994,0,0,0,3.1,1.2,4.655,4.655,0,0,0,3.7-1.7l2.1,2A7.622,7.622,0,0,1,338.5,296.5Zm10.1-.1V276.5h13.3v2.7H351.8V285h8.6v2.7h-8.6v6h10.1v2.7H348.6Zm37-2.2a8.105,8.105,0,0,1-11.1.2c-2-2-2-4.2-2-8s0-6,2-8a7.31,7.31,0,0,1,5.4-2.1,8.088,8.088,0,0,1,6.3,2.6l-2.1,2c-1.3-1.3-2.3-2-4.1-2a4.567,4.567,0,0,0-3.1,1.2c-1,1.1-1.2,2.2-1.2,6.2s.2,5.1,1.2,6.2a4.143,4.143,0,0,0,3.1,1.2,4.223,4.223,0,0,0,3.3-1.4,4.265,4.265,0,0,0,1-3.2V288H380v-2.6h7.5v3C387.5,291.2,387,292.8,385.6,294.2Zm17.9,2.2-4.4-8.4h-3.9v8.4H392V276.5h8c3.9,0,6.4,2.4,6.4,5.8a5.317,5.317,0,0,1-4.1,5.3l4.8,8.8h-3.6Zm-3.6-17.2h-4.7v6.2h4.7c2.1,0,3.5-1.1,3.5-3.1S402,279.2,399.9,279.2Zm23.5,15.2a7.543,7.543,0,0,1-5.5,2.1,7.725,7.725,0,0,1-5.4-2.1c-2-2-2-4.2-2-8s0-6,2-8a7.31,7.31,0,0,1,5.4-2.1,7.975,7.975,0,0,1,5.5,2.1c2,2,2,4.2,2,8S425.4,292.4,423.4,294.4ZM421,280.2a4.143,4.143,0,0,0-3.1-1.2,4.567,4.567,0,0,0-3.1,1.2c-1,1.1-1.2,2.2-1.2,6.2s.2,5.1,1.2,6.2a4.143,4.143,0,0,0,3.1,1.2,4.567,4.567,0,0,0,3.1-1.2c1-1.1,1.2-2.2,1.2-6.2S422,281.3,421,280.2Zm16.2,16.3c-4.2,0-7.4-2.8-7.4-6.9V276.4h3.1v13a4.3,4.3,0,0,0,8.6,0v-13h3.1v13.2C444.7,293.8,441.4,296.5,437.2,296.5Zm20.5-8H453v7.8h-3.1V276.4h7.9c4.1,0,6.6,2.6,6.6,6C464.4,286,461.8,288.5,457.7,288.5Zm-.1-9.3H453v6.6h4.5c2.2,0,3.7-1.2,3.7-3.3S459.7,279.2,457.6,279.2Z" fill="#1d1d1b"/>
    </g>
  </g>
</svg>
